<svg width="118" height="26" fill="none" xmlns="http://www.w3.org/2000/svg"><path fill-rule="evenodd" clip-rule="evenodd" d="M30.462 1.885c.938.923 1.313 1.961.825 3.346-.333.948-.682 1.893-1.03 2.837-.866 2.348-1.73 4.688-2.345 7.047l-.101.438c-.462 1.97-.924 3.944-.086 5.985.225.616-.263.77-.713.77-1.462 0-4.087-2-4.537-3.423-.244-.687-.067-1.35.108-2.006.041-.152.082-.304.117-.456.503-2.285 1.247-4.464 2.002-6.673l.098-.288c.075-.27.15-.577.037-.962l-.216.305a55.134 55.134 0 0 0-1.584 2.31c-1.912 3.039-3.787 6.077-5.437 9.27-.488.923-1.125 1.153-2.025.923-.713-.193-1.425-.462-2.025-.923-.75-.539-1.05-1.193-.938-2.154.127-.992.285-1.983.444-2.977.359-2.244.719-4.5.719-6.792 0-.539 0-1.077-.075-1.616-.304.98-.58 1.972-.856 2.964-.44 1.577-.88 3.155-1.432 4.69-.675 1.846-1.387 3.654-2.587 5.23-1.913 2.54-4.463 1.885-6.038.347-.975-.962-1.5-2.154-1.837-3.5a3.808 3.808 0 0 0-.017-.108c-.042-.248-.09-.527.204-.661.237-.122.38.02.523.161a1.7 1.7 0 0 0 .115.108c2.25 1.73 3.712 1.615 5.475-.654 2.587-3.346 3.975-7.192 4.612-11.385.15-1.115-.187-1.307-1.237-.923C7.662 4.27 6.125 8 7.4 10.962c.337.692.037.769-.488.769C4.1 11.73 1.962 8.769 2.825 6c1.087-3.23 3.6-4.73 6.637-5.5C10.962.154 12.5.115 14 .615c2.475.808 4.162 3.193 4.35 6.077.112 3.039.075 6.077-.263 9.116 2.775-4.769 5.587-9.538 8.4-14.306V1.5C27.312.077 27.537 0 29 .808a8.029 8.029 0 0 1 1.462 1.077zm46.763 17.692c-.225 2.461 1.388 3.884 3.75 3.269.08-.018.162-.047.245-.076.264-.094.53-.188.73.076.23.371-.06.654-.31.9h-.001c-.035.034-.07.067-.102.1-1.5 1.654-4.537 2.346-6.6 1.5-2.325-.962-3.224-3-2.587-5.73.355-1.557 1.072-2.97 1.79-4.39.117-.228.233-.458.347-.688.051-.104.113-.212.176-.322.264-.462.548-.96.124-1.332-.6-.5-1.275 0-1.837.424-.675.5-1.163 1.153-1.538 1.923-.825 1.692-1.537 3.423-1.8 5.307-.112.77-.412.923-1.05.846-.112-.038-.262-.038-.412-.038-2.438-.154-2.925-.885-2.138-3.27.718-2.124 1.57-4.191 2.423-6.257.706-1.712 1.411-3.423 2.04-5.165.07-.191.144-.381.216-.571.353-.918.703-1.832.796-2.852.038-.577.376-.808.938-.808 1.987-.038 3.338 1.77 2.663 3.692a90.463 90.463 0 0 1-1.293 3.31v.002c-.278.685-.561 1.385-.845 2.111l.303-.151c1.18-.59 2.194-1.097 3.335-1.31 2.4-.423 3.637 1 2.812 3.384-.312.96-.728 1.866-1.139 2.764l-.248.544c-.376.885-.713 1.808-.788 2.808zm-22.2-7.385c.713-1.038.45-1.692-.75-1.961-.487-.116-.975-.154-1.5-.193-.787-.115-1.275.077-1.612.962-.563 1.461-1.5 2.654-3.15 3.077-.12-.431.024-.714.163-.988.035-.068.07-.136.1-.205.302-.744.62-1.485.938-2.226.67-1.558 1.34-3.12 1.874-4.735.225-.615.412-1.23-.038-1.846-.675-.885-1.537-1.385-2.587-1.577-.563-.077-.975.115-1.05.77-.124 1.076-.502 2.075-.883 3.082-.081.215-.163.431-.242.648-.61 1.667-1.295 3.31-1.982 4.954-.834 2-1.669 4-2.368 6.046-.863 2.5-.338 3.27 2.212 3.384.15 0 .3 0 .413.039.637.115.9-.192.975-.808.075-.769.3-1.5.6-2.192.023-.055.042-.117.063-.182.08-.254.17-.541.5-.51.224.028.301.251.373.458.024.07.048.137.076.195.3.693.6 1.385.938 2.077.487.962 1.312 1.193 2.287.885 1.313-.423 2.288-1.27 3.038-2.462.187-.307.375-.692.225-1-.146-.358-.45-.276-.718-.203-.078.02-.153.041-.22.05-1.537.153-2.812-.308-3.937-1.616 1.2-.269 2.212-.73 3.15-1.269.158-.108.318-.215.478-.322.976-.652 1.958-1.307 2.634-2.332zm50.7-1.461c.45.461.075 1.115-.3 1.577-1.575 1.923-3.675 3-6.225 3.692 1.087 1.308 2.4 1.73 3.937 1.577.073-.01.15-.03.229-.051.244-.066.501-.134.671.128.225.346.038.73-.15 1.038-.75 1.231-1.762 2.116-3.112 2.539-.938.307-1.763.038-2.25-.923-.266-.518-.494-1.056-.725-1.599-.095-.223-.19-.447-.288-.67-.016-.042-.028-.088-.041-.134-.047-.174-.098-.358-.334-.328-.225.038-.337.27-.412.461-.338.77-.6 1.5-.675 2.308-.038.73-.338 1.192-1.125 1-.113-.038-.263-.038-.413-.038-2.362-.154-3-.923-2.137-3.193.974-2.563 1.982-5.092 2.99-7.62v-.002l.001-.002c.504-1.265 1.009-2.53 1.509-3.799.07-.19.143-.38.216-.57.352-.919.703-1.833.796-2.853.075-.77.563-.923 1.2-.846 2.1.308 3.113 1.923 2.363 3.885-.583 1.547-1.221 3.075-1.863 4.611l-.001.004c-.267.639-.535 1.28-.799 1.923a5.03 5.03 0 0 1-.089.19c-.134.278-.272.564-.21 1.002 1.649-.384 2.512-1.615 3.187-3 .061-.107.11-.224.158-.338.158-.375.308-.73.854-.7.204.015.412.021.621.027.868.026 1.752.053 2.417.704zM90.5 18.154c.262-1.846 1.012-3.462 1.95-5.039.412-.692.3-1.192-.263-1.692-1.162-1-2.587-1.346-4.087-1.423-.251.043-.514.074-.788.106-.218.026-.442.052-.675.086-3.75.539-7.162 4.116-7.5 8-.187 2.154.825 3.308 2.925 3.27 1.35-.039 2.55-.577 3.638-1.347.45-.307.787-.423 1.237.077.788.808 1.8 1.231 2.963 1.27.6 0 .787-.231.6-.77-.263-.884-.15-1.692 0-2.538zm-2.4-4.885c-.788 1.77-1.65 3.462-3.113 4.77-.337.307-.75.461-1.162.269-.3-.154-.338-.423-.263-.77.525-2.23 1.575-4 3.563-5.153l.039-.02c.296-.153.684-.354.936-.096.323.258.165.622.019.957l-.02.043zm17.363 3.693c.638-4.039 5.588-7.616 9.45-6.77 2.213.462 2.85 2.5 1.35 4.27-1.537 1.73-3.6 2.5-5.85 3.115.586 1.202 1.53 1.047 2.447.895l.066-.01c.675-.116 1.275-.462 1.8-.923l.013-.013c.261-.229.592-.52.924-.218.355.29.139.685-.044 1.02l-.031.057c-1.125 1.846-2.812 2.73-4.837 3.038l-.072.01c-.536.073-1.038.143-1.541.106-2.775-.154-4.087-2.077-3.675-4.577zm5.55-1.462c.788 0 2.888-1.692 3.038-2.5.15-.692-.188-1.038-.825-.769-1.275.538-1.988 1.615-2.55 2.808-.15.307 0 .5.337.461zm-49.126-3c.812.038 1.043.71 1.265 1.354l.01.03c.017.048.033.095.048.143.085.263.165.512.515.512.6.038 2.212-1.193 2.362-1.885.225-1-.45-1.538-1.162-1.962-1.988-1.192-5.775-.73-7.425.847-1.35 1.307-1.275 2.846.187 4 .3.23.61.442.92.653.309.212.618.424.918.654.487.385.862.885.712 1.616-.075.307-.337.384-.562.346-.713 0-1.05-.5-1.35-1.077-.038-.077-.075-.154-.075-.192-.188-1.231-.975-1.077-1.725-.693-.45.231-.863.539-1.238.846-.937.885-.9 1.654.113 2.462 1.2.962 2.587 1.308 4.087 1.27 1.313.038 2.55-.155 3.675-.847 2.063-1.23 2.175-3.654.263-5.115-.375-.27-.75-.539-1.125-.846-.563-.385-1.125-.808-1.013-1.654.038-.346.338-.5.6-.462zM41.075 3.346c.075-.692.488-.885 1.125-.846 2.1.192 3.225 1.884 2.475 3.884-1.024 2.59-2.083 5.18-3.141 7.77-.53 1.294-1.059 2.59-1.584 3.884-.337.77-.6 1.539-.675 2.385-.075.846-.15 1.038-1.125 1-.15 0-.262-.013-.36-.023a1.834 1.834 0 0 0-.202-.016c-2.288-.192-2.85-.961-2.063-3.115.923-2.402 1.876-4.79 2.83-7.18.558-1.4 1.117-2.8 1.67-4.205l.115-.293c.415-1.056.832-2.119.935-3.245zM33.5 10.154c-1.313-.308-1.463-.23-1.763 1.154a7.663 7.663 0 0 1-.487 1.577c-.397.995-.807 1.977-1.215 2.954-.285.684-.57 1.365-.848 2.046-.75 1.923-.825 2.884 1.088 3.346.3.077 1.725.27 1.725.27.487.038.712-.385.75-1.078.037-1 .412-1.923.825-2.807.24-.575.494-1.136.747-1.695.34-.75.677-1.496.978-2.267.75-1.692-.038-3.077-1.8-3.5zm4.762-4.347c-.037 1.577-1.35 3.039-2.662 3-1.163-.038-1.95-.884-1.913-2 .038-1.73 1.238-3.038 2.738-3 1.2 0 1.875.731 1.837 2z" fill="#232326"/></svg>